<svg xmlns="http://www.w3.org/2000/svg" width="1600" height="1000" viewBox="0 0 1600 1000" font-family="Segoe UI, Arial, sans-serif">
<defs>
    <linearGradient id="page" x1="0" y1="0" x2="1" y2="1"><stop offset="0" stop-color="#06192B"/><stop offset="1" stop-color="#0A3552"/></linearGradient>
    <linearGradient id="active" x1="0" y1="0" x2="1" y2="1"><stop offset="0" stop-color="#1C58C9"/><stop offset="1" stop-color="#194AA6"/></linearGradient>
    <filter id="elev" x="-20%" y="-20%" width="140%" height="140%"><feDropShadow dx="0" dy="12" stdDeviation="14" flood-color="#000" flood-opacity="0.18"/></filter>
    </defs>
<rect width="1600" height="1000" fill="url(#page)"/>
<rect x="0" y="0" width="220" height="1000" fill="#04111F" stroke="#24455F"/>
<circle cx="32" cy="36" r="8" fill="#19A7A6"/>
<circle cx="44" cy="54" r="8" fill="#43B02A"/>
<circle cx="56" cy="36" r="8" fill="#74D66A"/>
<text x="76" y="42" font-size="24" font-weight="800" fill="#FFFFFF" text-anchor="start">CRDB Bank</text>
<text x="76" y="68" font-size="15" font-weight="600" fill="#BBD1DE" text-anchor="start">MEL Tool</text>
<text x="22" y="116" font-size="12" font-weight="800" fill="#7F9AAF" text-anchor="start">CORE MODULES</text>
<text x="58" y="162" font-size="16" font-weight="500" fill="#D9E8ED" text-anchor="start">Overview</text>
<text x="32" y="162" font-size="17" font-weight="600" fill="#D9E8ED" text-anchor="start">⌂</text>
<text x="58" y="210" font-size="16" font-weight="500" fill="#D9E8ED" text-anchor="start">Portfolio</text>
<text x="32" y="210" font-size="17" font-weight="600" fill="#D9E8ED" text-anchor="start">▦</text>
<text x="58" y="258" font-size="16" font-weight="500" fill="#D9E8ED" text-anchor="start">Programmes</text>
<text x="32" y="258" font-size="17" font-weight="600" fill="#D9E8ED" text-anchor="start">▤</text>
<text x="58" y="306" font-size="16" font-weight="500" fill="#D9E8ED" text-anchor="start">Projects</text>
<text x="32" y="306" font-size="17" font-weight="600" fill="#D9E8ED" text-anchor="start">▣</text>
<text x="22" y="344" font-size="12" font-weight="800" fill="#7F9AAF" text-anchor="start">FIELD OPERATIONS</text>
<text x="58" y="390" font-size="16" font-weight="500" fill="#D9E8ED" text-anchor="start">Data Collection</text>
<text x="32" y="390" font-size="17" font-weight="600" fill="#D9E8ED" text-anchor="start">⇪</text>
<text x="58" y="438" font-size="16" font-weight="500" fill="#D9E8ED" text-anchor="start">Beneficiaries</text>
<text x="32" y="438" font-size="17" font-weight="600" fill="#D9E8ED" text-anchor="start">◉</text>
<text x="58" y="486" font-size="16" font-weight="500" fill="#D9E8ED" text-anchor="start">Evidence</text>
<text x="32" y="486" font-size="17" font-weight="600" fill="#D9E8ED" text-anchor="start">□</text>
<text x="22" y="524" font-size="12" font-weight="800" fill="#7F9AAF" text-anchor="start">RESULTS &amp; LEARNING</text>
<rect x="18" y="542" width="184" height="44" rx="8" fill="url(#active)"/>
<rect x="18" y="550" width="5" height="28" rx="2" fill="#F2C84B"/>
<text x="58" y="570" font-size="16" font-weight="700" fill="#FFFFFF" text-anchor="start">Indicators</text>
<text x="32" y="570" font-size="17" font-weight="600" fill="#FFFFFF" text-anchor="start">◎</text>
<text x="58" y="618" font-size="16" font-weight="500" fill="#D9E8ED" text-anchor="start">Dashboards</text>
<text x="32" y="618" font-size="17" font-weight="600" fill="#D9E8ED" text-anchor="start">◍</text>
<text x="58" y="666" font-size="16" font-weight="500" fill="#D9E8ED" text-anchor="start">Reports</text>
<text x="32" y="666" font-size="17" font-weight="600" fill="#D9E8ED" text-anchor="start">▧</text>
<text x="22" y="704" font-size="12" font-weight="800" fill="#7F9AAF" text-anchor="start">ADMIN</text>
<text x="58" y="750" font-size="16" font-weight="500" fill="#D9E8ED" text-anchor="start">System Activity</text>
<text x="32" y="750" font-size="17" font-weight="600" fill="#D9E8ED" text-anchor="start">◌</text>
<text x="58" y="798" font-size="16" font-weight="500" fill="#D9E8ED" text-anchor="start">User &amp; Access</text>
<text x="32" y="798" font-size="17" font-weight="600" fill="#D9E8ED" text-anchor="start">♙</text>
<text x="58" y="846" font-size="16" font-weight="500" fill="#D9E8ED" text-anchor="start">Settings</text>
<text x="32" y="846" font-size="17" font-weight="600" fill="#D9E8ED" text-anchor="start">⚙</text>
<line x1="18" y1="900" x2="202" y2="900" stroke="#24455F"/>
<circle cx="42" cy="940" r="22" fill="#43B02A"/><text x="42" y="945.3333333333334" font-size="16" font-weight="800" fill="#FFFFFF" text-anchor="middle">S</text>
<text x="76" y="934" font-size="15" font-weight="800" fill="#FFFFFF" text-anchor="start">Sustainable Finance Unit</text>
<text x="76" y="958" font-size="13" font-weight="500" fill="#BBD1DE" text-anchor="start">Head Office</text>
<text x="188" y="950" font-size="18" font-weight="700" fill="#BBD1DE" text-anchor="start">⌄</text>
<rect x="220" y="0" width="1380" height="86" fill="#071A2B" stroke="#24455F"/>
<text x="252" y="42" font-size="24" font-weight="700" fill="#BBD1DE" text-anchor="start">☰</text>
<text x="240" y="25" font-size="12" font-weight="500" fill="#BBD1DE" text-anchor="start">Programme</text>
<rect x="240" y="34" width="260" height="30" rx="5" fill="#071A2B" stroke="#315772"/>
<text x="254" y="55" font-size="14" font-weight="500" fill="#BBD1DE" text-anchor="start">Sustainable Finance Programme</text>
<text x="520" y="25" font-size="12" font-weight="500" fill="#BBD1DE" text-anchor="start">Period</text>
<rect x="520" y="34" width="200" height="30" rx="5" fill="#071A2B" stroke="#315772"/>
<text x="536" y="55" font-size="14" font-weight="500" fill="#BBD1DE" text-anchor="start">Q2 2026 (Apr-Jun)</text>
<rect x="748" y="26" width="360" height="38" rx="7" fill="#071A2B" stroke="#315772"/>
<text x="770" y="51" font-size="14" font-weight="500" fill="#7F9AAF" text-anchor="start">⌕ Search portfolios, partners...</text>
<text x="1144" y="50" font-size="14" font-weight="800" fill="#43B02A" text-anchor="start">● Synced 2 min ago</text>
<text x="1292" y="50" font-size="22" font-weight="700" fill="#BBD1DE" text-anchor="start">◷</text>
<text x="1340" y="50" font-size="20" font-weight="800" fill="#BBD1DE" text-anchor="start">?</text>
<circle cx="1392" cy="43" r="22" fill="#243B63"/><text x="1392" y="48.333333333333336" font-size="16" font-weight="800" fill="#FFFFFF" text-anchor="middle">AM</text>
<text x="1426" y="38" font-size="15" font-weight="800" fill="#FFFFFF" text-anchor="start">Alex Morgan</text>
<text x="1426" y="60" font-size="13" font-weight="500" fill="#BBD1DE" text-anchor="start">MEL Manager</text>
<text x="1534" y="48" font-size="18" font-weight="700" fill="#BBD1DE" text-anchor="start">⌄</text>
<g filter="url(#elev)"><rect x="240" y="110" width="220" height="122" rx="10" fill="#0C2740" stroke="#24455F"/></g>
<circle cx="274" cy="146" r="22" fill="#2F6FED"/><text x="274" y="151.0" font-size="15" font-weight="800" fill="#FFFFFF" text-anchor="middle">I</text>
<text x="308" y="142" font-size="14" font-weight="700" fill="#BBD1DE" text-anchor="start">Indicators</text>
<text x="308" y="176" font-size="28" font-weight="800" fill="#FFFFFF" text-anchor="start">256</text>
<text x="308" y="204" font-size="14" font-weight="600" fill="#BBD1DE" text-anchor="start">defined</text>
<g filter="url(#elev)"><rect x="488" y="110" width="220" height="122" rx="10" fill="#0C2740" stroke="#24455F"/></g>
<circle cx="522" cy="146" r="22" fill="#43B02A"/><text x="522" y="151.0" font-size="15" font-weight="800" fill="#FFFFFF" text-anchor="middle">W</text>
<text x="556" y="142" font-size="14" font-weight="700" fill="#BBD1DE" text-anchor="start">With Targets</text>
<text x="556" y="176" font-size="28" font-weight="800" fill="#FFFFFF" text-anchor="start">218</text>
<text x="556" y="204" font-size="14" font-weight="600" fill="#BBD1DE" text-anchor="start">85%</text>
<g filter="url(#elev)"><rect x="736" y="110" width="220" height="122" rx="10" fill="#0C2740" stroke="#24455F"/></g>
<circle cx="770" cy="146" r="22" fill="#19A7A6"/><text x="770" y="151.0" font-size="15" font-weight="800" fill="#FFFFFF" text-anchor="middle">V</text>
<text x="804" y="142" font-size="14" font-weight="700" fill="#BBD1DE" text-anchor="start">Verified</text>
<text x="804" y="176" font-size="28" font-weight="800" fill="#FFFFFF" text-anchor="start">148</text>
<text x="804" y="204" font-size="14" font-weight="600" fill="#BBD1DE" text-anchor="start">58%</text>
<g filter="url(#elev)"><rect x="984" y="110" width="220" height="122" rx="10" fill="#0C2740" stroke="#24455F"/></g>
<circle cx="1018" cy="146" r="22" fill="#F2C84B"/><text x="1018" y="151.0" font-size="15" font-weight="800" fill="#FFFFFF" text-anchor="middle">R</text>
<text x="1052" y="142" font-size="14" font-weight="700" fill="#BBD1DE" text-anchor="start">Reporting Ready</text>
<text x="1052" y="176" font-size="28" font-weight="800" fill="#FFFFFF" text-anchor="start">74%</text>
<text x="1052" y="204" font-size="14" font-weight="600" fill="#BBD1DE" text-anchor="start">GCF/URT packs</text>
<g filter="url(#elev)"><rect x="240" y="270" width="470" height="320" rx="10" fill="#0C2740" stroke="#24455F"/></g>
<text x="264" y="304" font-size="18" font-weight="800" fill="#FFFFFF" text-anchor="start">Logframe Navigator</text>
<text x="264" y="350" font-size="16" font-weight="800" fill="#F2C84B" text-anchor="start">Impact</text>
<text x="290" y="382" font-size="15" font-weight="600" fill="#BBD1DE" text-anchor="start">Climate resilience of food crop farmers increased</text>
<text x="264" y="430" font-size="16" font-weight="800" fill="#43B02A" text-anchor="start">Outcomes</text>
<text x="290" y="462" font-size="15" font-weight="600" fill="#BBD1DE" text-anchor="start">Improved access to climate-smart finance</text>
<text x="290" y="494" font-size="15" font-weight="600" fill="#BBD1DE" text-anchor="start">Adoption of adaptive farming practices</text>
<text x="264" y="542" font-size="16" font-weight="800" fill="#19A7A6" text-anchor="start">Outputs</text>
<g filter="url(#elev)"><rect x="738" y="270" width="482" height="320" rx="10" fill="#0C2740" stroke="#24455F"/></g>
<text x="762" y="304" font-size="18" font-weight="800" fill="#FFFFFF" text-anchor="start">Indicator Performance</text>
<text x="762" y="352" font-size="15" font-weight="700" fill="#FFFFFF" text-anchor="start">Yield improvement (%)</text>
<rect x="1076" y="332" width="80" height="24" rx="12.0" fill="#123F2A"/><text x="1116.0" y="349.0" font-size="14" font-weight="800" fill="#74D66A" text-anchor="middle">On track</text>
<text x="762" y="400" font-size="15" font-weight="700" fill="#FFFFFF" text-anchor="start">Income improvement (%)</text>
<rect x="1076" y="380" width="80" height="24" rx="12.0" fill="#4A3510"/><text x="1116.0" y="397.0" font-size="14" font-weight="800" fill="#F2C84B" text-anchor="middle">At risk</text>
<text x="762" y="448" font-size="15" font-weight="700" fill="#FFFFFF" text-anchor="start">Water-use efficiency (%)</text>
<rect x="1076" y="428" width="80" height="24" rx="12.0" fill="#123F2A"/><text x="1116.0" y="445.0" font-size="14" font-weight="800" fill="#74D66A" text-anchor="middle">On track</text>
<text x="762" y="496" font-size="15" font-weight="700" fill="#FFFFFF" text-anchor="start">GHG reduction (tCO₂e)</text>
<rect x="1076" y="476" width="80" height="24" rx="12.0" fill="#4A1D1D"/><text x="1116.0" y="493.0" font-size="14" font-weight="800" fill="#E24B4B" text-anchor="middle">Missing</text>
<g filter="url(#elev)"><rect x="240" y="620" width="980" height="290" rx="10" fill="#0C2740" stroke="#24455F"/></g>
<text x="264" y="654" font-size="18" font-weight="800" fill="#FFFFFF" text-anchor="start">Reporting Templates</text>
<text x="264" y="704" font-size="16" font-weight="700" fill="#BBD1DE" text-anchor="start">GCF APR Annex</text>
<text x="620" y="704" font-size="16" font-weight="700" fill="#BBD1DE" text-anchor="start">Semi-annual CRDB brief</text>
<text x="264" y="754" font-size="16" font-weight="700" fill="#BBD1DE" text-anchor="start">URT stakeholder report</text>
<text x="620" y="754" font-size="16" font-weight="700" fill="#BBD1DE" text-anchor="start">Power BI executive dashboard</text>
<text x="264" y="818" font-size="16" font-weight="700" fill="#BBD1DE" text-anchor="start">Learning note / case study pack</text>
<g filter="url(#elev)"><rect x="1248" y="92" width="330" height="430" rx="10" fill="#0C2740" stroke="#24455F"/></g>
<text x="1272" y="132" font-size="22" font-weight="800" fill="#FFFFFF" text-anchor="start">✦ MEL AI Assistant</text>
<rect x="1454" y="110" width="54" height="24" rx="12.0" fill="#173A61"/><text x="1481.0" y="127.0" font-size="14" font-weight="800" fill="#BBD1DE" text-anchor="middle">Beta</text>
<text x="1272" y="178" font-size="14" font-weight="500" fill="#BBD1DE" text-anchor="start">How can I help you today?</text>
<rect x="1272" y="204" width="282" height="42" rx="8" fill="#102B45" stroke="#315772"/>
<text x="1296" y="231" font-size="14" font-weight="600" fill="#BBD1DE" text-anchor="start">Explain variance in disbursements</text>
<rect x="1272" y="260" width="282" height="42" rx="8" fill="#102B45" stroke="#315772"/>
<text x="1296" y="287" font-size="14" font-weight="600" fill="#BBD1DE" text-anchor="start">Draft donor update for Q2</text>
<rect x="1272" y="316" width="282" height="42" rx="8" fill="#102B45" stroke="#315772"/>
<text x="1296" y="343" font-size="14" font-weight="600" fill="#BBD1DE" text-anchor="start">Check data gaps in indicators</text>
<rect x="1272" y="372" width="282" height="42" rx="8" fill="#102B45" stroke="#315772"/>
<text x="1296" y="399" font-size="14" font-weight="600" fill="#BBD1DE" text-anchor="start">Summarize safeguards findings</text>
<rect x="1272" y="446" width="282" height="42" rx="8" fill="#102B45" stroke="#315772"/>
<text x="1288" y="472" font-size="14" font-weight="500" fill="#7F9AAF" text-anchor="start">Ask a question...</text>
<circle cx="1530" cy="467" r="18" fill="#243B63"/><text x="1530" y="471.6666666666667" font-size="14" font-weight="800" fill="#FFFFFF" text-anchor="middle">➤</text>
<g filter="url(#elev)"><rect x="1248" y="540" width="330" height="370" rx="10" fill="#0C2740" stroke="#24455F"/></g>
<text x="1272" y="582" font-size="22" font-weight="800" fill="#FFFFFF" text-anchor="start">Quick Actions</text>
<rect x="1272" y="610" width="136" height="126" rx="8" fill="#102B45" stroke="#315772"/>
<circle cx="1300" cy="638" r="18" fill="#2F6FED"/><text x="1300" y="642.3333333333334" font-size="13" font-weight="800" fill="#FFFFFF" text-anchor="middle">S</text>
<text x="1290" y="680" font-size="16" font-weight="800" fill="#FFFFFF" text-anchor="start">Submit Q2</text>
<text x="1290" y="708" font-size="13" font-weight="500" fill="#BBD1DE" text-anchor="start">Due Jul 31</text>
<rect x="1422" y="610" width="136" height="126" rx="8" fill="#102B45" stroke="#315772"/>
<circle cx="1450" cy="638" r="18" fill="#43B02A"/><text x="1450" y="642.3333333333334" font-size="13" font-weight="800" fill="#FFFFFF" text-anchor="middle">U</text>
<text x="1440" y="680" font-size="16" font-weight="800" fill="#FFFFFF" text-anchor="start">Upload Evidence</text>
<text x="1440" y="708" font-size="13" font-weight="500" fill="#BBD1DE" text-anchor="start">Add new files</text>
<rect x="1272" y="760" width="136" height="126" rx="8" fill="#102B45" stroke="#315772"/>
<circle cx="1300" cy="788" r="18" fill="#F59E0B"/><text x="1300" y="792.3333333333334" font-size="13" font-weight="800" fill="#FFFFFF" text-anchor="middle">R</text>
<text x="1290" y="830" font-size="16" font-weight="800" fill="#FFFFFF" text-anchor="start">Exceptions</text>
<text x="1290" y="858" font-size="13" font-weight="500" fill="#BBD1DE" text-anchor="start">7 items</text>
<rect x="1422" y="760" width="136" height="126" rx="8" fill="#102B45" stroke="#315772"/>
<circle cx="1450" cy="788" r="18" fill="#8B5CF6"/><text x="1450" y="792.3333333333334" font-size="13" font-weight="800" fill="#FFFFFF" text-anchor="middle">G</text>
<text x="1440" y="830" font-size="16" font-weight="800" fill="#FFFFFF" text-anchor="start">Learning Brief</text>
<text x="1440" y="858" font-size="13" font-weight="500" fill="#BBD1DE" text-anchor="start">Create summary</text>
<text x="1272" y="882" font-size="15" font-weight="700" fill="#2F6FED" text-anchor="start">View all actions →</text>
<text x="250" y="966" font-size="13" font-weight="600" fill="#7F9AAF" text-anchor="start">CRDB Bank · Secure · Compliant · Impact driven</text><text x="1510" y="966" font-size="13" font-weight="600" fill="#7F9AAF" text-anchor="end">Copyright 2026</text>
</svg>
